<svg width="379" height="379" viewBox="0 0 379 379" fill="none" xmlns="http://www.w3.org/2000/svg">
<path id="pie3" d="M374.612 152.642C365.696 108.445 341.315 68.8712 305.854 41.0384C270.394 13.2057 226.181 -1.05982 181.167 0.807555C136.153 2.67493 93.2921 20.5527 60.2923 51.2255C27.2925 81.8983 6.31947 123.353 1.14519 168.135L87.8974 178.226C90.6837 154.111 101.978 131.787 119.748 115.27C137.518 98.7526 160.599 89.1255 184.839 88.1199C209.079 87.1143 232.888 94.7963 251.983 109.784C271.079 124.772 284.208 146.083 289.009 169.883L374.612 152.642Z" fill="url(#paint0_linear)"/>
<path id="pie2" d="M1.68145 166.418C-1.37731 191.105 0.450317 216.15 7.05996 240.124C13.6696 264.098 24.9318 286.532 40.2036 306.144C55.4754 325.756 74.4577 342.162 96.0666 354.426C117.676 366.69 141.488 374.571 166.144 377.62L176.894 290.864C163.616 289.223 150.793 284.978 139.157 278.374C127.52 271.77 117.298 262.936 109.074 252.375C100.851 241.814 94.7859 229.733 91.2266 216.823C87.6673 203.913 86.6832 190.426 88.3303 177.132L1.68145 166.418Z" fill="url(#paint1_linear)"/>
<path id="pie1" d="M165.743 377.258C195.441 380.946 225.592 377.527 253.721 367.282C281.851 357.037 307.154 340.26 327.555 318.326C347.956 296.393 362.871 269.931 371.075 241.112C379.28 212.294 380.54 181.942 374.751 152.549L289.084 169.503C292.201 185.33 291.523 201.675 287.105 217.193C282.687 232.711 274.655 246.961 263.67 258.772C252.684 270.582 239.059 279.617 223.911 285.134C208.764 290.65 192.528 292.491 176.536 290.506L165.743 377.258Z" fill="url(#paint2_linear)"/>
<path id="45%" d="M165.415 58.6431H168.867V61.2236H165.415V67H162.236V61.2236H150.906V59.3608L162.048 42.1172H165.415V58.6431ZM154.495 58.6431H162.236V46.4409L161.86 47.1245L154.495 58.6431ZM173.174 54.5244L174.438 42.1172H187.188V45.0396H177.122L176.37 51.8242C177.589 51.1064 178.973 50.7476 180.522 50.7476C182.79 50.7476 184.59 51.4995 185.923 53.0034C187.256 54.4959 187.922 56.5182 187.922 59.0703C187.922 61.6338 187.227 63.6561 185.837 65.1372C184.459 66.6069 182.528 67.3418 180.044 67.3418C177.845 67.3418 176.051 66.7323 174.661 65.5132C173.271 64.2941 172.479 62.6079 172.285 60.4546H175.276C175.47 61.8787 175.977 62.9554 176.797 63.6846C177.617 64.4023 178.7 64.7612 180.044 64.7612C181.514 64.7612 182.664 64.2599 183.496 63.2573C184.339 62.2547 184.761 60.8704 184.761 59.1045C184.761 57.4411 184.305 56.1081 183.394 55.1055C182.493 54.0915 181.292 53.5845 179.788 53.5845C178.409 53.5845 177.327 53.8864 176.541 54.4902L175.703 55.1738L173.174 54.5244ZM191.101 46.9023C191.101 45.4098 191.574 44.1794 192.52 43.2109C193.477 42.2425 194.701 41.7583 196.194 41.7583C197.709 41.7583 198.934 42.2482 199.868 43.228C200.814 44.1965 201.287 45.4554 201.287 47.0049V48.2183C201.287 49.7222 200.808 50.9526 199.851 51.9097C198.905 52.8553 197.698 53.3281 196.228 53.3281C194.747 53.3281 193.522 52.8553 192.554 51.9097C191.585 50.9526 191.101 49.6823 191.101 48.0986V46.9023ZM193.459 48.2183C193.459 49.1069 193.71 49.8418 194.211 50.4229C194.713 50.9925 195.385 51.2773 196.228 51.2773C197.037 51.2773 197.686 50.9982 198.176 50.4399C198.678 49.8817 198.928 49.1183 198.928 48.1499V46.9023C198.928 46.0137 198.683 45.2788 198.193 44.6978C197.703 44.1167 197.037 43.8262 196.194 43.8262C195.351 43.8262 194.684 44.1167 194.194 44.6978C193.704 45.2788 193.459 46.0365 193.459 46.9707V48.2183ZM203.218 60.8989C203.218 59.4064 203.691 58.1816 204.636 57.2246C205.593 56.2562 206.818 55.772 208.311 55.772C209.803 55.772 211.028 56.2505 211.985 57.2075C212.942 58.1646 213.42 59.4349 213.42 61.0186V62.2319C213.42 63.7244 212.942 64.9549 211.985 65.9233C211.039 66.8804 209.826 67.3589 208.345 67.3589C206.864 67.3589 205.639 66.8861 204.67 65.9404C203.702 64.9834 203.218 63.7131 203.218 62.1294V60.8989ZM205.576 62.2319C205.576 63.132 205.827 63.8726 206.328 64.4536C206.829 65.0233 207.502 65.3081 208.345 65.3081C209.165 65.3081 209.82 65.029 210.31 64.4707C210.8 63.901 211.045 63.132 211.045 62.1636V60.8989C211.045 59.9989 210.794 59.264 210.293 58.6943C209.803 58.1247 209.142 57.8398 208.311 57.8398C207.502 57.8398 206.841 58.1247 206.328 58.6943C205.827 59.2526 205.576 60.0103 205.576 60.9673V62.2319ZM196.946 65.1201L195.151 63.9922L207.302 44.5439L209.097 45.6719L196.946 65.1201Z" fill="white"/>
<path id="25%" d="M52.3716 271H36.0679V268.727L44.6812 259.157C45.9572 257.71 46.8345 256.536 47.313 255.636C47.8029 254.725 48.0479 253.785 48.0479 252.816C48.0479 251.518 47.6548 250.452 46.8687 249.621C46.0825 248.789 45.0343 248.373 43.7241 248.373C42.1519 248.373 40.9271 248.823 40.0498 249.723C39.1839 250.612 38.751 251.854 38.751 253.449H35.5894C35.5894 251.159 36.3242 249.307 37.7939 247.895C39.2751 246.482 41.2518 245.775 43.7241 245.775C46.0369 245.775 47.8656 246.385 49.21 247.604C50.5544 248.812 51.2266 250.424 51.2266 252.44C51.2266 254.89 49.6657 257.807 46.5439 261.19L39.8789 268.419H52.3716V271ZM57.1738 258.524L58.4385 246.117H71.1875V249.04H61.1216L60.3696 255.824C61.5887 255.106 62.973 254.748 64.5225 254.748C66.7897 254.748 68.5898 255.5 69.9229 257.003C71.2559 258.496 71.9224 260.518 71.9224 263.07C71.9224 265.634 71.2274 267.656 69.8374 269.137C68.4588 270.607 66.5277 271.342 64.0439 271.342C61.8451 271.342 60.0506 270.732 58.6606 269.513C57.2707 268.294 56.4788 266.608 56.2852 264.455H59.2759C59.4696 265.879 59.9766 266.955 60.7969 267.685C61.6172 268.402 62.6995 268.761 64.0439 268.761C65.5137 268.761 66.6644 268.26 67.4961 267.257C68.3392 266.255 68.7607 264.87 68.7607 263.104C68.7607 261.441 68.305 260.108 67.3936 259.105C66.4935 258.091 65.2915 257.584 63.7876 257.584C62.409 257.584 61.3267 257.886 60.5405 258.49L59.7031 259.174L57.1738 258.524ZM75.1011 250.902C75.1011 249.41 75.5739 248.179 76.5195 247.211C77.4766 246.243 78.7013 245.758 80.1938 245.758C81.7091 245.758 82.9339 246.248 83.8682 247.228C84.8138 248.196 85.2866 249.455 85.2866 251.005V252.218C85.2866 253.722 84.8081 254.953 83.8511 255.91C82.9054 256.855 81.6978 257.328 80.228 257.328C78.7469 257.328 77.5221 256.855 76.5537 255.91C75.5853 254.953 75.1011 253.682 75.1011 252.099V250.902ZM77.4595 252.218C77.4595 253.107 77.7101 253.842 78.2114 254.423C78.7127 254.993 79.3849 255.277 80.228 255.277C81.0369 255.277 81.6864 254.998 82.1763 254.44C82.6776 253.882 82.9282 253.118 82.9282 252.15V250.902C82.9282 250.014 82.6833 249.279 82.1934 248.698C81.7035 248.117 81.0369 247.826 80.1938 247.826C79.3507 247.826 78.6842 248.117 78.1943 248.698C77.7044 249.279 77.4595 250.036 77.4595 250.971V252.218ZM87.2178 264.899C87.2178 263.406 87.6906 262.182 88.6362 261.225C89.5933 260.256 90.818 259.772 92.3105 259.772C93.8031 259.772 95.0278 260.25 95.9849 261.208C96.9419 262.165 97.4204 263.435 97.4204 265.019V266.232C97.4204 267.724 96.9419 268.955 95.9849 269.923C95.0392 270.88 93.8258 271.359 92.3447 271.359C90.8636 271.359 89.6388 270.886 88.6704 269.94C87.702 268.983 87.2178 267.713 87.2178 266.129V264.899ZM89.5762 266.232C89.5762 267.132 89.8268 267.873 90.3281 268.454C90.8294 269.023 91.5016 269.308 92.3447 269.308C93.165 269.308 93.8201 269.029 94.3101 268.471C94.8 267.901 95.0449 267.132 95.0449 266.164V264.899C95.0449 263.999 94.7943 263.264 94.293 262.694C93.8031 262.125 93.1423 261.84 92.3105 261.84C91.5016 261.84 90.8408 262.125 90.3281 262.694C89.8268 263.253 89.5762 264.01 89.5762 264.967V266.232ZM80.9458 269.12L79.1514 267.992L91.3022 248.544L93.0967 249.672L80.9458 269.12Z" fill="white"/>
<path id="35%" d="M277.665 279.021H280.041C281.533 278.998 282.707 278.605 283.561 277.841C284.416 277.078 284.843 276.047 284.843 274.748C284.843 271.831 283.39 270.373 280.485 270.373C279.118 270.373 278.024 270.766 277.204 271.552C276.395 272.327 275.99 273.358 275.99 274.646H272.829C272.829 272.674 273.546 271.04 274.982 269.741C276.429 268.431 278.263 267.775 280.485 267.775C282.832 267.775 284.672 268.396 286.005 269.638C287.338 270.88 288.004 272.606 288.004 274.816C288.004 275.899 287.651 276.947 286.945 277.961C286.25 278.975 285.299 279.733 284.091 280.234C285.458 280.667 286.512 281.385 287.252 282.387C288.004 283.39 288.38 284.615 288.38 286.062C288.38 288.295 287.651 290.066 286.193 291.376C284.735 292.687 282.838 293.342 280.502 293.342C278.166 293.342 276.264 292.709 274.794 291.445C273.336 290.18 272.606 288.511 272.606 286.438H275.785C275.785 287.748 276.212 288.796 277.067 289.582C277.921 290.368 279.066 290.761 280.502 290.761C282.029 290.761 283.196 290.362 284.005 289.565C284.814 288.767 285.219 287.622 285.219 286.13C285.219 284.683 284.774 283.572 283.886 282.797C282.997 282.023 281.715 281.624 280.041 281.601H277.665V279.021ZM294.174 280.524L295.438 268.117H308.188V271.04H298.122L297.37 277.824C298.589 277.106 299.973 276.748 301.522 276.748C303.79 276.748 305.59 277.5 306.923 279.003C308.256 280.496 308.922 282.518 308.922 285.07C308.922 287.634 308.227 289.656 306.837 291.137C305.459 292.607 303.528 293.342 301.044 293.342C298.845 293.342 297.051 292.732 295.661 291.513C294.271 290.294 293.479 288.608 293.285 286.455H296.276C296.47 287.879 296.977 288.955 297.797 289.685C298.617 290.402 299.7 290.761 301.044 290.761C302.514 290.761 303.664 290.26 304.496 289.257C305.339 288.255 305.761 286.87 305.761 285.104C305.761 283.441 305.305 282.108 304.394 281.105C303.493 280.091 302.292 279.584 300.788 279.584C299.409 279.584 298.327 279.886 297.541 280.49L296.703 281.174L294.174 280.524ZM312.101 272.902C312.101 271.41 312.574 270.179 313.52 269.211C314.477 268.243 315.701 267.758 317.194 267.758C318.709 267.758 319.934 268.248 320.868 269.228C321.814 270.196 322.287 271.455 322.287 273.005V274.218C322.287 275.722 321.808 276.953 320.851 277.91C319.905 278.855 318.698 279.328 317.228 279.328C315.747 279.328 314.522 278.855 313.554 277.91C312.585 276.953 312.101 275.682 312.101 274.099V272.902ZM314.459 274.218C314.459 275.107 314.71 275.842 315.211 276.423C315.713 276.993 316.385 277.277 317.228 277.277C318.037 277.277 318.686 276.998 319.176 276.44C319.678 275.882 319.928 275.118 319.928 274.15V272.902C319.928 272.014 319.683 271.279 319.193 270.698C318.703 270.117 318.037 269.826 317.194 269.826C316.351 269.826 315.684 270.117 315.194 270.698C314.704 271.279 314.459 272.036 314.459 272.971V274.218ZM324.218 286.899C324.218 285.406 324.691 284.182 325.636 283.225C326.593 282.256 327.818 281.772 329.311 281.772C330.803 281.772 332.028 282.25 332.985 283.208C333.942 284.165 334.42 285.435 334.42 287.019V288.232C334.42 289.724 333.942 290.955 332.985 291.923C332.039 292.88 330.826 293.359 329.345 293.359C327.864 293.359 326.639 292.886 325.67 291.94C324.702 290.983 324.218 289.713 324.218 288.129V286.899ZM326.576 288.232C326.576 289.132 326.827 289.873 327.328 290.454C327.829 291.023 328.502 291.308 329.345 291.308C330.165 291.308 330.82 291.029 331.31 290.471C331.8 289.901 332.045 289.132 332.045 288.164V286.899C332.045 285.999 331.794 285.264 331.293 284.694C330.803 284.125 330.142 283.84 329.311 283.84C328.502 283.84 327.841 284.125 327.328 284.694C326.827 285.253 326.576 286.01 326.576 286.967V288.232ZM317.946 291.12L316.151 289.992L328.302 270.544L330.097 271.672L317.946 291.12Z" fill="white"/>
<path id="open position" d="M127.889 186.619C127.889 185.584 128.09 184.653 128.494 183.826C128.904 182.999 129.471 182.361 130.193 181.912C130.923 181.463 131.753 181.238 132.684 181.238C134.122 181.238 135.285 181.736 136.17 182.732C137.062 183.729 137.508 185.053 137.508 186.707V186.834C137.508 187.863 137.309 188.787 136.912 189.607C136.521 190.421 135.958 191.056 135.223 191.512C134.493 191.967 133.654 192.195 132.703 192.195C131.271 192.195 130.109 191.697 129.217 190.701C128.331 189.705 127.889 188.387 127.889 186.746V186.619ZM129.705 186.834C129.705 188.006 129.975 188.947 130.516 189.656C131.062 190.366 131.792 190.721 132.703 190.721C133.621 190.721 134.35 190.363 134.891 189.646C135.431 188.924 135.701 187.915 135.701 186.619C135.701 185.46 135.424 184.523 134.871 183.807C134.324 183.084 133.595 182.723 132.684 182.723C131.792 182.723 131.072 183.077 130.525 183.787C129.979 184.497 129.705 185.512 129.705 186.834ZM148.699 186.834C148.699 188.442 148.331 189.738 147.596 190.721C146.86 191.704 145.864 192.195 144.607 192.195C143.325 192.195 142.316 191.788 141.58 190.975V196.062H139.773V181.434H141.424L141.512 182.605C142.247 181.694 143.27 181.238 144.578 181.238C145.848 181.238 146.85 181.717 147.586 182.674C148.328 183.631 148.699 184.962 148.699 186.668V186.834ZM146.893 186.629C146.893 185.438 146.639 184.497 146.131 183.807C145.623 183.117 144.926 182.771 144.041 182.771C142.947 182.771 142.127 183.257 141.58 184.227V189.275C142.12 190.239 142.947 190.721 144.061 190.721C144.926 190.721 145.613 190.379 146.121 189.695C146.635 189.005 146.893 187.983 146.893 186.629ZM155.389 192.195C153.956 192.195 152.791 191.727 151.893 190.789C150.994 189.845 150.545 188.585 150.545 187.01V186.678C150.545 185.63 150.743 184.695 151.141 183.875C151.544 183.048 152.104 182.404 152.82 181.941C153.543 181.473 154.324 181.238 155.164 181.238C156.538 181.238 157.605 181.691 158.367 182.596C159.129 183.501 159.51 184.796 159.51 186.482V187.234H152.352C152.378 188.276 152.68 189.119 153.26 189.764C153.846 190.402 154.588 190.721 155.486 190.721C156.124 190.721 156.665 190.59 157.107 190.33C157.55 190.07 157.938 189.725 158.27 189.295L159.373 190.154C158.488 191.515 157.16 192.195 155.389 192.195ZM155.164 182.723C154.435 182.723 153.823 182.99 153.328 183.523C152.833 184.051 152.527 184.793 152.41 185.75H157.703V185.613C157.651 184.695 157.404 183.986 156.961 183.484C156.518 182.977 155.919 182.723 155.164 182.723ZM163.318 181.434L163.377 182.762C164.184 181.746 165.239 181.238 166.541 181.238C168.774 181.238 169.9 182.498 169.92 185.018V192H168.113V185.008C168.107 184.246 167.931 183.683 167.586 183.318C167.247 182.954 166.717 182.771 165.994 182.771C165.408 182.771 164.894 182.928 164.451 183.24C164.008 183.553 163.663 183.963 163.416 184.471V192H161.609V181.434H163.318ZM186.531 186.834C186.531 188.442 186.163 189.738 185.428 190.721C184.692 191.704 183.696 192.195 182.439 192.195C181.157 192.195 180.148 191.788 179.412 190.975V196.062H177.605V181.434H179.256L179.344 182.605C180.079 181.694 181.102 181.238 182.41 181.238C183.68 181.238 184.682 181.717 185.418 182.674C186.16 183.631 186.531 184.962 186.531 186.668V186.834ZM184.725 186.629C184.725 185.438 184.471 184.497 183.963 183.807C183.455 183.117 182.758 182.771 181.873 182.771C180.779 182.771 179.959 183.257 179.412 184.227V189.275C179.952 190.239 180.779 190.721 181.893 190.721C182.758 190.721 183.445 190.379 183.953 189.695C184.467 189.005 184.725 187.983 184.725 186.629ZM188.357 186.619C188.357 185.584 188.559 184.653 188.963 183.826C189.373 182.999 189.939 182.361 190.662 181.912C191.391 181.463 192.221 181.238 193.152 181.238C194.591 181.238 195.753 181.736 196.639 182.732C197.531 183.729 197.977 185.053 197.977 186.707V186.834C197.977 187.863 197.778 188.787 197.381 189.607C196.99 190.421 196.427 191.056 195.691 191.512C194.962 191.967 194.122 192.195 193.172 192.195C191.74 192.195 190.577 191.697 189.686 190.701C188.8 189.705 188.357 188.387 188.357 186.746V186.619ZM190.174 186.834C190.174 188.006 190.444 188.947 190.984 189.656C191.531 190.366 192.26 190.721 193.172 190.721C194.09 190.721 194.819 190.363 195.359 189.646C195.9 188.924 196.17 187.915 196.17 186.619C196.17 185.46 195.893 184.523 195.34 183.807C194.793 183.084 194.064 182.723 193.152 182.723C192.26 182.723 191.541 183.077 190.994 183.787C190.447 184.497 190.174 185.512 190.174 186.834ZM206.395 189.197C206.395 188.709 206.209 188.331 205.838 188.064C205.473 187.791 204.832 187.557 203.914 187.361C203.003 187.166 202.277 186.932 201.736 186.658C201.202 186.385 200.805 186.059 200.545 185.682C200.291 185.304 200.164 184.855 200.164 184.334C200.164 183.468 200.529 182.736 201.258 182.137C201.993 181.538 202.931 181.238 204.07 181.238C205.268 181.238 206.238 181.548 206.98 182.166C207.729 182.785 208.104 183.576 208.104 184.539H206.287C206.287 184.044 206.076 183.618 205.652 183.26C205.236 182.902 204.708 182.723 204.07 182.723C203.413 182.723 202.898 182.866 202.527 183.152C202.156 183.439 201.971 183.813 201.971 184.275C201.971 184.712 202.143 185.04 202.488 185.262C202.833 185.483 203.455 185.695 204.354 185.896C205.258 186.098 205.991 186.339 206.551 186.619C207.111 186.899 207.524 187.238 207.791 187.635C208.064 188.025 208.201 188.504 208.201 189.07C208.201 190.014 207.824 190.773 207.068 191.346C206.313 191.912 205.333 192.195 204.129 192.195C203.283 192.195 202.534 192.046 201.883 191.746C201.232 191.447 200.721 191.03 200.35 190.496C199.985 189.956 199.803 189.373 199.803 188.748H201.609C201.642 189.354 201.883 189.835 202.332 190.193C202.788 190.545 203.387 190.721 204.129 190.721C204.812 190.721 205.359 190.584 205.77 190.311C206.186 190.031 206.395 189.66 206.395 189.197ZM212.518 192H210.711V181.434H212.518V192ZM210.564 178.631C210.564 178.338 210.652 178.09 210.828 177.889C211.01 177.687 211.277 177.586 211.629 177.586C211.98 177.586 212.247 177.687 212.43 177.889C212.612 178.09 212.703 178.338 212.703 178.631C212.703 178.924 212.612 179.168 212.43 179.363C212.247 179.559 211.98 179.656 211.629 179.656C211.277 179.656 211.01 179.559 210.828 179.363C210.652 179.168 210.564 178.924 210.564 178.631ZM217.869 178.875V181.434H219.842V182.83H217.869V189.383C217.869 189.806 217.957 190.125 218.133 190.34C218.309 190.548 218.608 190.652 219.031 190.652C219.24 190.652 219.526 190.613 219.891 190.535V192C219.415 192.13 218.953 192.195 218.504 192.195C217.697 192.195 217.088 191.951 216.678 191.463C216.268 190.975 216.062 190.281 216.062 189.383V182.83H214.139V181.434H216.062V178.875H217.869ZM223.924 192H222.117V181.434H223.924V192ZM221.971 178.631C221.971 178.338 222.059 178.09 222.234 177.889C222.417 177.687 222.684 177.586 223.035 177.586C223.387 177.586 223.654 177.687 223.836 177.889C224.018 178.09 224.109 178.338 224.109 178.631C224.109 178.924 224.018 179.168 223.836 179.363C223.654 179.559 223.387 179.656 223.035 179.656C222.684 179.656 222.417 179.559 222.234 179.363C222.059 179.168 221.971 178.924 221.971 178.631ZM226.346 186.619C226.346 185.584 226.548 184.653 226.951 183.826C227.361 182.999 227.928 182.361 228.65 181.912C229.38 181.463 230.21 181.238 231.141 181.238C232.579 181.238 233.742 181.736 234.627 182.732C235.519 183.729 235.965 185.053 235.965 186.707V186.834C235.965 187.863 235.766 188.787 235.369 189.607C234.979 190.421 234.415 191.056 233.68 191.512C232.951 191.967 232.111 192.195 231.16 192.195C229.728 192.195 228.566 191.697 227.674 190.701C226.788 189.705 226.346 188.387 226.346 186.746V186.619ZM228.162 186.834C228.162 188.006 228.432 188.947 228.973 189.656C229.52 190.366 230.249 190.721 231.16 190.721C232.078 190.721 232.807 190.363 233.348 189.646C233.888 188.924 234.158 187.915 234.158 186.619C234.158 185.46 233.882 184.523 233.328 183.807C232.781 183.084 232.052 182.723 231.141 182.723C230.249 182.723 229.529 183.077 228.982 183.787C228.436 184.497 228.162 185.512 228.162 186.834ZM239.939 181.434L239.998 182.762C240.805 181.746 241.86 181.238 243.162 181.238C245.395 181.238 246.521 182.498 246.541 185.018V192H244.734V185.008C244.728 184.246 244.552 183.683 244.207 183.318C243.868 182.954 243.338 182.771 242.615 182.771C242.029 182.771 241.515 182.928 241.072 183.24C240.63 183.553 240.285 183.963 240.037 184.471V192H238.23V181.434H239.939Z" fill="white"/>
<defs>
<linearGradient id="paint0_linear" x1="151.674" y1="4.3668" x2="347.942" y2="181.564" gradientUnits="userSpaceOnUse">
<stop stop-color="#6509C1"/>
<stop offset="1" stop-color="#6509C1" stop-opacity="0"/>
</linearGradient>
<linearGradient id="paint1_linear" x1="166.144" y1="377.62" x2="343.426" y2="81.4559" gradientUnits="userSpaceOnUse">
<stop stop-color="#093B87"/>
<stop offset="1" stop-color="#42DDD4" stop-opacity="0"/>
</linearGradient>
<linearGradient id="paint2_linear" x1="376.873" y1="212.595" x2="4.01045" y2="170.408" gradientUnits="userSpaceOnUse">
<stop stop-color="#FF270A"/>
<stop offset="1" stop-color="#FF270A" stop-opacity="0"/>
</linearGradient>
</defs>
</svg>
