<svg width="835" height="318" viewBox="0 0 835 318" fill="none" xmlns="http://www.w3.org/2000/svg">
<rect width="835" height="318" fill="#100F0F"/>
<g id="maingraph">
<path id="Vector" d="M12.5897 111.491C19.5429 111.491 25.1795 105.113 25.1795 97.2455C25.1795 89.3779 19.5429 83 12.5897 83C5.63662 83 0 89.3779 0 97.2455C0 105.113 5.63662 111.491 12.5897 111.491Z" fill="url(#paint0_linear)"/>
<path id="Vector_2" d="M12.5897 63.4911C19.5429 63.4911 25.1795 57.1131 25.1795 49.2455C25.1795 41.3779 19.5429 35 12.5897 35C5.63662 35 0 41.3779 0 49.2455C0 57.1131 5.63662 63.4911 12.5897 63.4911Z" fill="url(#paint1_linear)"/>
<path id="Vector_3" d="M12.5897 165.307C19.5429 165.307 25.1795 158.93 25.1795 151.062C25.1795 143.194 19.5429 136.816 12.5897 136.816C5.63662 136.816 0 143.194 0 151.062C0 158.93 5.63662 165.307 12.5897 165.307Z" fill="url(#paint2_linear)"/>
<path id="Vector_4" d="M12.5897 219.124C19.5429 219.124 25.1795 212.746 25.1795 204.878C25.1795 197.011 19.5429 190.633 12.5897 190.633C5.63662 190.633 0 197.011 0 204.878C0 212.746 5.63662 219.124 12.5897 219.124Z" fill="url(#paint3_linear)"/>
<path id="Vector_5" d="M12.5897 272.94C19.5429 272.94 25.1795 266.562 25.1795 258.695C25.1795 250.827 19.5429 244.449 12.5897 244.449C5.63662 244.449 0 250.827 0 258.695C0 266.562 5.63662 272.94 12.5897 272.94Z" fill="url(#paint4_linear)"/>
<path id="Vector_6" d="M832.446 99H76.5537C75.8764 99 75.2269 98.842 74.748 98.5607C74.2691 98.2794 74 97.8978 74 97.5C74 97.1022 74.2691 96.7207 74.748 96.4394C75.2269 96.1581 75.8764 96 76.5537 96H832.446C833.124 96 833.773 96.1581 834.252 96.4394C834.731 96.7207 835 97.1022 835 97.5C835 97.8978 834.731 98.2794 834.252 98.5607C833.773 98.842 833.124 99 832.446 99Z" fill="#1B1919" fill-opacity="0.81"/>
<path id="Vector_7" d="M832.446 43H76.5537C75.8764 43 75.2269 42.842 74.748 42.5607C74.2691 42.2794 74 41.8978 74 41.5C74 41.1022 74.2691 40.7207 74.748 40.4394C75.2269 40.1581 75.8764 40 76.5537 40H832.446C833.124 40 833.773 40.1581 834.252 40.4394C834.731 40.7207 835 41.1022 835 41.5C835 41.8978 834.731 42.2794 834.252 42.5607C833.773 42.842 833.124 43 832.446 43Z" fill="#1B1919" fill-opacity="0.81"/>
<path id="Vector_8" d="M832.446 153H76.5537C75.8764 153 75.2269 152.789 74.748 152.414C74.2691 152.039 74 151.53 74 151C74 150.47 74.2691 149.961 74.748 149.586C75.2269 149.211 75.8764 149 76.5537 149H832.446C833.124 149 833.773 149.211 834.252 149.586C834.731 149.961 835 150.47 835 151C835 151.53 834.731 152.039 834.252 152.414C833.773 152.789 833.124 153 832.446 153Z" fill="#1B1919" fill-opacity="0.81"/>
<path id="Vector_9" d="M832.446 206H76.5537C75.8764 206 75.2269 205.842 74.748 205.561C74.2691 205.279 74 204.898 74 204.5C74 204.102 74.2691 203.721 74.748 203.439C75.2269 203.158 75.8764 203 76.5537 203H832.446C833.124 203 833.773 203.158 834.252 203.439C834.731 203.721 835 204.102 835 204.5C835 204.898 834.731 205.279 834.252 205.561C833.773 205.842 833.124 206 832.446 206Z" fill="#1B1919" fill-opacity="0.81"/>
<path id="Vector_10" d="M832.446 260H76.5537C75.8764 260 75.2269 259.842 74.748 259.561C74.2691 259.279 74 258.898 74 258.5C74 258.102 74.2691 257.721 74.748 257.439C75.2269 257.158 75.8764 257 76.5537 257H832.446C833.124 257 833.773 257.158 834.252 257.439C834.731 257.721 835 258.102 835 258.5C835 258.898 834.731 259.279 834.252 259.561C833.773 259.842 833.124 260 832.446 260Z" fill="#1B1919" fill-opacity="0.81"/>
<path id="Vector_11" d="M153.875 314.094H113.308C111.453 314.092 109.676 313.257 108.364 311.773C107.053 310.29 106.316 308.278 106.313 306.18V263.443C106.316 261.345 107.053 259.334 108.364 257.85C109.676 256.366 111.453 255.532 113.308 255.529H153.875C155.729 255.532 157.507 256.366 158.818 257.85C160.129 259.334 160.867 261.345 160.869 263.443V306.18C160.867 308.278 160.129 310.29 158.818 311.773C157.507 313.257 155.729 314.092 153.875 314.094V314.094Z" fill="url(#paint5_linear)"/>
<path id="Vector_12" d="M244.801 314.094H204.234C202.379 314.092 200.602 313.257 199.29 311.774C197.979 310.29 197.242 308.278 197.239 306.18V209.627C197.242 207.529 197.979 205.517 199.29 204.033C200.602 202.55 202.379 201.715 204.234 201.713H244.801C246.655 201.715 248.433 202.55 249.744 204.033C251.055 205.517 251.793 207.529 251.795 209.627V306.18C251.793 308.278 251.055 310.29 249.744 311.774C248.433 313.257 246.655 314.092 244.801 314.094V314.094Z" fill="url(#paint6_linear)"/>
<path id="Vector_13" d="M337.125 314.094H296.558C294.704 314.092 292.926 313.257 291.615 311.774C290.304 310.29 289.566 308.278 289.564 306.18V155.811C289.566 153.712 290.304 151.701 291.615 150.217C292.926 148.733 294.704 147.899 296.558 147.896H337.125C338.98 147.899 340.757 148.733 342.069 150.217C343.38 151.701 344.118 153.712 344.12 155.811V306.18C344.118 308.278 343.38 310.29 342.069 311.774C340.757 313.257 338.98 314.092 337.125 314.094V314.094Z" fill="url(#paint7_linear)"/>
<path id="Vector_14" d="M432.248 314.094H391.681C389.827 314.092 388.049 313.257 386.738 311.774C385.426 310.29 384.689 308.278 384.687 306.18V103.577C384.689 101.479 385.426 99.4671 386.738 97.9834C388.049 96.4997 389.827 95.6651 391.681 95.6627H432.248C434.102 95.6651 435.88 96.4997 437.191 97.9834C438.502 99.4671 439.24 101.479 439.242 103.577V306.18C439.24 308.278 438.502 310.29 437.191 311.774C435.88 313.257 434.102 314.092 432.248 314.094V314.094Z" fill="url(#paint8_linear)"/>
<path id="Vector_15" d="M524.949 317H484.051C482.182 316.998 480.39 316.352 479.068 315.205C477.746 314.057 477.002 312.5 477 310.877V154.123C477.002 152.5 477.746 150.943 479.068 149.796C480.39 148.648 482.182 148.002 484.051 148H524.949C526.818 148.002 528.61 148.648 529.932 149.796C531.254 150.943 531.998 152.5 532 154.123V310.877C531.998 312.5 531.254 314.057 529.932 315.205C528.61 316.352 526.818 316.998 524.949 317V317Z" fill="url(#paint9_linear)"/>
<path id="Vector_16" d="M802.949 318H762.051C760.182 317.998 758.39 317.352 757.068 316.205C755.746 315.057 755.002 313.5 755 311.877V155.123C755.002 153.5 755.746 151.943 757.068 150.796C758.39 149.648 760.182 149.002 762.051 149H802.949C804.818 149.002 806.61 149.648 807.932 150.796C809.254 151.943 809.998 153.5 810 155.123V311.877C809.998 313.5 809.254 315.057 807.932 316.205C806.61 317.352 804.818 317.998 802.949 318V318Z" fill="url(#paint10_linear)"/>
<path id="Vector_17" d="M615.949 317H575.051C573.182 316.997 571.39 315.785 570.068 313.632C568.746 311.479 568.002 308.56 568 305.514V11.4855C568.002 8.44043 568.746 5.5211 570.068 3.36791C571.39 1.21471 573.182 0.00348367 575.051 0H615.949C617.818 0.00348367 619.61 1.21471 620.932 3.36791C622.254 5.5211 622.998 8.44043 623 11.4855V305.514C622.998 308.56 622.254 311.479 620.932 313.632C619.61 315.785 617.818 316.997 615.949 317V317Z" fill="url(#paint11_linear)"/>
<path id="Vector_18" d="M711.949 317H671.051C669.182 316.998 667.39 316.153 666.068 314.652C664.746 313.151 664.002 311.116 664 308.993V104.007C664.002 101.884 664.746 99.8491 666.068 98.348C667.39 96.8469 669.182 96.0024 671.051 96H711.949C713.818 96.0024 715.61 96.8469 716.932 98.348C718.254 99.8491 718.998 101.884 719 104.007V308.993C718.998 311.116 718.254 313.151 716.932 314.652C715.61 316.153 713.818 316.998 711.949 317V317Z" fill="url(#paint12_linear)"/>
<path id="Vector_19" d="M832.446 314H76.5537C75.8764 314 75.2269 313.842 74.748 313.561C74.2691 313.279 74 312.898 74 312.5C74 312.102 74.2691 311.721 74.748 311.439C75.2269 311.158 75.8764 311 76.5537 311H832.446C833.124 311 833.773 311.158 834.252 311.439C834.731 311.721 835 312.102 835 312.5C835 312.898 834.731 313.279 834.252 313.561C833.773 313.842 833.124 314 832.446 314Z" fill="#3F3D56" fill-opacity="0.66"/>
</g>
<defs>
<linearGradient id="paint0_linear" x1="12.5897" y1="83" x2="12.5897" y2="111.491" gradientUnits="userSpaceOnUse">
<stop stop-color="#CCCCCC"/>
<stop offset="1" stop-color="#CCCCCC" stop-opacity="0"/>
</linearGradient>
<linearGradient id="paint1_linear" x1="12.5897" y1="35" x2="12.5897" y2="63.4911" gradientUnits="userSpaceOnUse">
<stop stop-color="#CCCCCC"/>
<stop offset="1" stop-color="#CCCCCC" stop-opacity="0"/>
</linearGradient>
<linearGradient id="paint2_linear" x1="12.5897" y1="136.816" x2="12.5897" y2="165.307" gradientUnits="userSpaceOnUse">
<stop stop-color="#CCCCCC"/>
<stop offset="1" stop-color="#CCCCCC" stop-opacity="0"/>
</linearGradient>
<linearGradient id="paint3_linear" x1="12.5897" y1="190.633" x2="12.5897" y2="219.124" gradientUnits="userSpaceOnUse">
<stop stop-color="#CCCCCC"/>
<stop offset="1" stop-color="#CCCCCC" stop-opacity="0"/>
</linearGradient>
<linearGradient id="paint4_linear" x1="12.5897" y1="244.449" x2="12.5897" y2="272.94" gradientUnits="userSpaceOnUse">
<stop stop-color="#CCCCCC"/>
<stop offset="1" stop-color="#CCCCCC" stop-opacity="0"/>
</linearGradient>
<linearGradient id="paint5_linear" x1="133.591" y1="255.529" x2="133.591" y2="314.094" gradientUnits="userSpaceOnUse">
<stop stop-color="#3028B9"/>
<stop offset="1" stop-color="#6C63FF" stop-opacity="0"/>
</linearGradient>
<linearGradient id="paint6_linear" x1="224.517" y1="201.713" x2="224.517" y2="314.094" gradientUnits="userSpaceOnUse">
<stop stop-color="#3028B9"/>
<stop offset="1" stop-color="#6C63FF" stop-opacity="0"/>
</linearGradient>
<linearGradient id="paint7_linear" x1="316.842" y1="147.896" x2="316.842" y2="314.094" gradientUnits="userSpaceOnUse">
<stop stop-color="#3028B9"/>
<stop offset="1" stop-color="#6C63FF" stop-opacity="0"/>
</linearGradient>
<linearGradient id="paint8_linear" x1="411.964" y1="95.6627" x2="411.964" y2="314.094" gradientUnits="userSpaceOnUse">
<stop stop-color="#3028B9"/>
<stop offset="1" stop-color="#6C63FF" stop-opacity="0"/>
</linearGradient>
<linearGradient id="paint9_linear" x1="504.5" y1="148" x2="504.5" y2="317" gradientUnits="userSpaceOnUse">
<stop stop-color="#3028B9"/>
<stop offset="1" stop-color="#6C63FF" stop-opacity="0"/>
</linearGradient>
<linearGradient id="paint10_linear" x1="782.5" y1="149" x2="782.5" y2="318" gradientUnits="userSpaceOnUse">
<stop stop-color="#3028B9"/>
<stop offset="1" stop-color="#6C63FF" stop-opacity="0"/>
</linearGradient>
<linearGradient id="paint11_linear" x1="595.5" y1="0" x2="595.5" y2="317" gradientUnits="userSpaceOnUse">
<stop stop-color="#3028B9"/>
<stop offset="1" stop-color="#6C63FF" stop-opacity="0"/>
</linearGradient>
<linearGradient id="paint12_linear" x1="691.5" y1="96" x2="691.5" y2="317" gradientUnits="userSpaceOnUse">
<stop stop-color="#3028B9"/>
<stop offset="1" stop-color="#6C63FF" stop-opacity="0"/>
</linearGradient>
</defs>
</svg>
