<svg width="543" height="533" viewBox="0 0 543 533" fill="none" xmlns="http://www.w3.org/2000/svg">
<g id="notfication">
<path id="Vector" d="M281.789 180.729C288.299 180.888 293.719 175.992 293.894 169.795C294.069 163.598 288.933 158.445 282.423 158.287C275.912 158.128 270.492 163.024 270.317 169.221C270.142 175.418 275.278 180.571 281.789 180.729Z" fill="url(#paint0_linear)"/>
<path id="Vector_2" d="M279.791 128.629C286.303 128.73 291.678 123.787 291.796 117.589C291.914 111.39 286.73 106.284 280.218 106.183C273.706 106.082 268.332 111.025 268.214 117.223C268.096 123.422 273.279 128.528 279.791 128.629Z" fill="url(#paint1_linear)"/>
<path id="Vector_3" d="M282.792 81.9142C289.305 82.0301 294.674 77.1 294.784 70.9023C294.895 64.7047 289.705 59.5865 283.192 59.4706C276.679 59.3546 271.31 64.2848 271.2 70.4824C271.089 76.68 276.28 81.7982 282.792 81.9142Z" fill="url(#paint2_linear)"/>
<path id="Vector_4" d="M326.393 45.0632C325.452 45.0475 324.543 45.3878 323.866 46.0093C323.189 46.6309 322.8 47.4831 322.783 48.3789L322.114 85.9404C322.099 86.8362 322.458 87.7017 323.112 88.347C323.767 88.9923 324.663 89.3646 325.604 89.3825L514.591 92.7473C515.532 92.763 516.441 92.4227 517.118 91.8011C517.795 91.1796 518.184 90.3274 518.201 89.4316L518.87 51.8701C518.885 50.9743 518.526 50.1088 517.872 49.4635C517.217 48.8182 516.321 48.4458 515.38 48.428L326.393 45.0632Z" fill="#E6E6E6"/>
<path id="Vector_5" d="M327.623 47.7207C327.077 47.7115 326.55 47.9088 326.158 48.2692C325.765 48.6296 325.539 49.1237 325.529 49.6431L324.904 84.7747C324.895 85.2942 325.103 85.796 325.483 86.1701C325.862 86.5443 326.382 86.7601 326.928 86.7704L513.361 90.0898C513.907 90.0989 514.434 89.9016 514.826 89.5412C515.218 89.1808 515.444 88.6867 515.454 88.1674L516.08 53.0357C516.088 52.5164 515.88 52.0145 515.501 51.6404C515.121 51.2663 514.602 51.0504 514.056 51.0401L327.623 47.7207Z" fill="white"/>
<path id="Vector_6" d="M501.827 80.2477C502.266 80.2562 502.703 80.182 503.113 80.0296C503.522 79.8771 503.895 79.6493 504.212 79.3592C504.528 79.0691 504.781 78.7224 504.957 78.3389C505.132 77.9554 505.226 77.5427 505.233 77.1243C505.241 76.7059 505.161 76.29 505 75.9005C504.838 75.511 504.598 75.1555 504.292 74.8543C503.986 74.5532 503.621 74.3122 503.217 74.1453C502.814 73.9784 502.38 73.8887 501.94 73.8815L344.251 71.0739C343.365 71.0594 342.509 71.3801 341.872 71.9658C341.235 72.5515 340.869 73.3542 340.854 74.1976C340.839 75.041 341.176 75.8562 341.792 76.4641C342.408 77.0721 343.251 77.4231 344.137 77.4401L501.827 80.2477Z" fill="#E6E6E6"/>
<path id="Vector_7" d="M412.238 64.8193C413.125 64.8351 413.982 64.5149 414.62 63.9291C415.258 63.3434 415.625 62.54 415.64 61.6958C415.655 60.8516 415.317 60.0357 414.7 59.4275C414.083 58.8194 413.238 58.4689 412.351 58.4531L344.497 57.245C343.61 57.2292 342.753 57.5494 342.115 58.1352C341.477 58.721 341.111 59.5243 341.096 60.3686C341.08 61.2128 341.419 62.0287 342.035 62.6368C342.652 63.2449 343.497 63.5954 344.384 63.6112L412.238 64.8193Z" fill="#C263FF"/>
<path id="Vector_8" d="M323.368 102.055C322.426 102.041 321.517 102.384 320.839 103.007C320.162 103.63 319.771 104.483 319.753 105.379L319.038 142.946C319.022 143.842 319.38 144.706 320.034 145.35C320.687 145.994 321.583 146.364 322.524 146.38L511.49 149.309C512.432 149.323 513.341 148.98 514.019 148.357C514.696 147.734 515.087 146.881 515.105 145.985L515.82 108.419C515.836 107.523 515.478 106.658 514.824 106.014C514.171 105.37 513.275 105 512.334 104.984L323.368 102.055Z" fill="#E6E6E6"/>
<path id="Vector_9" d="M324.594 104.71C324.048 104.702 323.521 104.9 323.128 105.262C322.735 105.623 322.508 106.118 322.498 106.637L321.829 141.773C321.82 142.293 322.028 142.794 322.407 143.168C322.786 143.541 323.305 143.756 323.851 143.765L510.264 146.654C510.81 146.662 511.337 146.464 511.73 146.102C512.123 145.741 512.349 145.246 512.359 144.727L513.028 109.591C513.037 109.071 512.83 108.57 512.451 108.197C512.072 107.823 511.553 107.609 511.007 107.6L324.594 104.71Z" fill="white"/>
<path id="Vector_10" d="M502.313 136.396C502.753 136.404 503.19 136.329 503.599 136.175C504.009 136.022 504.382 135.793 504.699 135.502C505.016 135.211 505.269 134.864 505.445 134.48C505.621 134.096 505.715 133.683 505.723 133.265C505.731 132.846 505.653 132.431 505.492 132.041C505.331 131.652 505.09 131.297 504.785 130.997C504.479 130.696 504.115 130.456 503.711 130.29C503.308 130.124 502.874 130.036 502.435 130.029L344.762 127.585C343.876 127.573 343.02 127.896 342.382 128.483C341.745 129.07 341.378 129.873 341.361 130.717C341.345 131.561 341.682 132.375 342.297 132.982C342.911 133.588 343.754 133.937 344.641 133.952L502.313 136.396Z" fill="#E6E6E6"/>
<path id="Vector_11" d="M409.181 121.615C410.068 121.629 410.925 121.306 411.563 120.719C412.202 120.132 412.57 119.328 412.586 118.483C412.602 117.639 412.265 116.824 411.649 116.217C411.033 115.61 410.189 115.262 409.302 115.248L341.455 114.196C341.016 114.189 340.579 114.265 340.17 114.419C339.761 114.572 339.388 114.801 339.072 115.092C338.756 115.383 338.503 115.73 338.327 116.113C338.152 116.497 338.058 116.91 338.05 117.328C338.042 117.746 338.12 118.161 338.281 118.55C338.442 118.939 338.681 119.294 338.986 119.594C339.291 119.895 339.656 120.135 340.058 120.301C340.461 120.467 340.894 120.556 341.334 120.563L409.181 121.615Z" fill="#C263FF"/>
<path id="Vector_12" d="M320.664 152.086C319.723 152.065 318.81 152.399 318.127 153.016C317.444 153.633 317.045 154.483 317.019 155.379L315.958 192.938C315.934 193.834 316.284 194.702 316.931 195.351C317.579 196.001 318.471 196.379 319.412 196.403L508.339 201.002C509.28 201.024 510.192 200.689 510.876 200.072C511.559 199.455 511.957 198.605 511.984 197.709L513.045 160.15C513.069 159.254 512.719 158.386 512.072 157.737C511.424 157.087 510.532 156.709 509.591 156.685L320.664 152.086Z" fill="#E6E6E6"/>
<path id="Vector_13" d="M321.866 154.752C321.32 154.739 320.791 154.933 320.395 155.291C319.998 155.649 319.767 156.142 319.752 156.661L318.76 191.791C318.745 192.31 318.949 192.813 319.324 193.19C319.7 193.566 320.217 193.786 320.762 193.8L507.137 198.336C507.683 198.349 508.211 198.155 508.608 197.797C509.004 197.439 509.235 196.947 509.25 196.427L510.242 161.298C510.256 160.778 510.054 160.275 509.678 159.898C509.303 159.522 508.786 159.302 508.24 159.289L321.866 154.752Z" fill="white"/>
<path id="Vector_14" d="M496.455 185.721C496.895 185.731 497.332 185.659 497.743 185.508C498.153 185.357 498.528 185.131 498.847 184.842C499.166 184.554 499.422 184.208 499.6 183.825C499.778 183.442 499.876 183.03 499.887 182.612C499.897 182.193 499.821 181.777 499.663 181.387C499.505 180.997 499.267 180.64 498.964 180.338C498.66 180.035 498.297 179.793 497.895 179.624C497.493 179.455 497.06 179.364 496.62 179.355L338.97 175.875C338.084 175.857 337.226 176.174 336.585 176.757C335.943 177.34 335.571 178.141 335.549 178.985C335.527 179.828 335.858 180.645 336.468 181.255C337.079 181.866 337.92 182.221 338.806 182.242L496.455 185.721Z" fill="#E6E6E6"/>
<path id="Vector_15" d="M406.291 172.404C407.178 172.426 408.038 172.111 408.682 171.529C409.326 170.948 409.701 170.147 409.725 169.303C409.749 168.458 409.419 167.64 408.809 167.028C408.199 166.416 407.358 166.06 406.471 166.038L338.638 164.387C337.751 164.366 336.891 164.68 336.247 165.262C335.603 165.843 335.228 166.645 335.204 167.489C335.18 168.333 335.51 169.151 336.12 169.763C336.73 170.375 337.571 170.731 338.458 170.753L406.291 172.404Z" fill="#C263FF"/>
<path id="Vector_16" d="M128.612 338.797C127.214 338.682 125.859 338.285 124.639 337.63C123.419 336.976 122.361 336.08 121.537 335.003C120.712 333.926 120.14 332.692 119.858 331.384C119.577 330.076 119.592 328.724 119.903 327.419L125.775 302.783L137.248 304.059L139.355 328.615C139.472 329.981 139.273 331.356 138.773 332.645C138.273 333.933 137.483 335.104 136.46 336.074C135.436 337.045 134.203 337.791 132.847 338.262C131.492 338.732 130.046 338.915 128.612 338.797V338.797Z" fill="#9F616A"/>
<path id="pant" d="M204.209 488.629L189.902 487.539L184.785 355.794L168.672 413.752L163.282 494.033L149.594 491.548L141.297 408.781L150.449 309.963L229.517 321.69L204.209 488.629Z" fill="url(#paint3_linear)"/>
<path id="Vector_17" d="M199.834 521.43C198.379 521.525 196.922 521.33 195.556 520.857C194.19 520.384 192.945 519.643 191.901 518.682C190.856 517.721 190.037 516.562 189.494 515.278C188.951 513.994 188.697 512.615 188.749 511.228L189.548 489.789C189.567 489.277 189.719 488.776 189.989 488.33C190.259 487.885 190.639 487.509 191.096 487.234C195.133 484.815 199.464 485.052 204.046 487.561C204.452 487.786 204.803 488.091 205.073 488.458C205.343 488.824 205.526 489.242 205.61 489.683L209.449 509.667C209.714 511.046 209.669 512.465 209.316 513.83C208.963 515.195 208.311 516.476 207.403 517.587C206.494 518.698 205.35 519.615 204.045 520.278C202.741 520.94 201.305 521.333 199.834 521.43V521.43Z" fill="url(#paint4_linear)"/>
<path id="Vector_18" d="M141.873 523.654C140.507 523.276 139.25 522.607 138.199 521.696C137.148 520.786 136.33 519.659 135.806 518.4C135.283 517.141 135.067 515.783 135.177 514.43C135.286 513.076 135.717 511.761 136.437 510.586L150.148 488.203C155.353 484.121 158.76 485.718 160.496 492.589L163.073 485.099L165.534 487.338C166.782 488.475 167.565 489.997 167.745 491.637C167.924 493.277 167.488 494.928 166.513 496.298L152.326 520.043C151.204 521.621 149.587 522.82 147.708 523.47C145.828 524.119 143.785 524.183 141.873 523.654Z" fill="url(#paint5_linear)"/>
<path id="Vector_19" d="M215.096 178.365C226.838 177.592 235.761 167.907 235.025 156.733C234.289 145.559 224.174 137.127 212.431 137.9C200.689 138.674 191.767 148.359 192.502 159.533C193.238 170.707 203.354 179.139 215.096 178.365Z" fill="#9F616A"/>
<path id="Vector_20" d="M229.672 194.339L193.084 189.975C197.117 180.219 200.635 176.777 195.826 166.765L224.883 164.851C223.022 175.672 226.156 185.507 229.672 194.339Z" fill="#9F616A"/>
<path id="Vector_21" d="M213.424 128.038C217.067 127.958 220.671 128.716 223.93 130.249C224.679 130.602 224.44 132.068 225.139 132.495C226.019 133.032 227.823 132.552 228.614 133.197C231.166 135.274 233.197 137.868 234.558 140.792C235.92 143.716 236.578 146.897 236.484 150.102L236.037 161.406L233.047 158.677C227.68 153.713 220.499 150.917 212.993 150.869C212.674 150.869 212.355 150.874 212.036 150.884L213.953 147.156L210.445 150.963C208.739 151.094 207.044 151.338 205.373 151.694L207.922 146.737L202.772 152.327L202.772 152.327C200.556 152.946 198.52 154.05 196.829 155.551C195.137 157.052 193.837 158.908 193.033 160.97L192.507 162.297L191.119 151.633C190.856 148.678 191.235 145.698 192.233 142.881C193.23 140.063 194.825 137.467 196.917 135.254C199.009 133.041 201.554 131.258 204.394 130.017C207.233 128.776 210.307 128.102 213.424 128.038V128.038Z" fill="#2F2E41"/>
<path id="Vector_22" d="M235.676 164.495C236.619 164.433 237.269 162.654 237.129 160.523C236.989 158.391 236.11 156.714 235.167 156.776C234.224 156.838 233.573 158.616 233.714 160.748C233.854 162.879 234.732 164.557 235.676 164.495Z" fill="#9F616A"/>
<path id="Vector_23" d="M192.903 166.087C193.846 166.025 194.497 164.247 194.357 162.115C194.216 159.984 193.338 158.306 192.395 158.368C191.452 158.43 190.801 160.209 190.941 162.34C191.082 164.472 191.96 166.15 192.903 166.087Z" fill="#9F616A"/>
<path id="Vector_24" d="M234.391 330.852L147.836 313.522C162.521 276.722 163.51 237.316 155.732 196.241C155.543 195.249 155.567 194.23 155.801 193.244C156.036 192.258 156.476 191.326 157.096 190.503C157.716 189.681 158.504 188.984 159.411 188.456C160.318 187.928 161.326 187.579 162.376 187.429C173.412 185.829 184.904 183.951 196.803 181.602L210.846 189.483L226.215 185.084C231.37 187.062 236.536 188.65 241.21 190.264C245.471 191.739 248.991 194.677 251.085 198.503C253.178 202.329 253.695 206.77 252.533 210.959C241.298 251.695 234.62 291.754 234.391 330.852Z" fill="url(#paint6_linear)"/>
<path id="Vector_25" d="M139.552 306.617L123.118 305.667L154.761 197.243C156.37 191.728 161.05 188.492 166.927 187.295L172.641 187.596L172.519 250.597L139.552 306.617Z" fill="url(#paint7_linear)"/>
<path id="Vector_26" d="M265.904 277.967C263.203 278.345 260.451 277.901 258.042 276.699C255.632 275.498 253.688 273.6 252.486 271.276L234.596 236.688L244.466 192.01L247.972 193.83C248.31 194.006 248.644 194.186 248.974 194.372C259.104 200.071 264.574 211.069 263.322 222.247L261.218 241.031L276.788 268.167C276.252 270.664 274.918 272.947 272.969 274.702C271.02 276.457 268.552 277.597 265.904 277.967V277.967Z" fill="url(#paint8_linear)"/>
<g id="hand">
<path id="Vector_27" d="M279.129 208.319C280.511 208.547 281.825 209.053 282.982 209.804C284.138 210.554 285.112 211.533 285.837 212.673C286.562 213.814 287.022 215.09 287.186 216.417C287.349 217.744 287.214 219.09 286.787 220.367L278.743 244.453L267.432 242.253L267.524 217.602C267.529 216.231 267.849 214.876 268.462 213.632C269.075 212.387 269.965 211.284 271.071 210.4C272.178 209.515 273.472 208.87 274.864 208.511C276.256 208.152 277.712 208.086 279.129 208.319V208.319Z" fill="#9F616A"/>
<path id="Vector_28" d="M270.659 276.308L252.23 266.684L265.203 236.704L284.074 242.235L276.548 268.47L270.659 276.308Z" fill="url(#paint9_linear)"/>
</g>
<path id="Star 1" d="M82.5171 180.009L86.2987 183.97L91.2194 181.6L88.6359 186.418L92.4175 190.379L87.0392 189.396L84.4557 194.215L83.7152 188.789L78.3369 187.805L83.2576 185.435L82.5171 180.009Z" fill="url(#paint10_linear)"/>
<path id="Star 3" d="M339.12 302.538L346.584 302.079L348.725 294.431L351.197 301.795L358.661 301.336L352.725 306.346L355.197 313.71L349.056 309.442L343.12 314.453L345.261 306.805L339.12 302.538Z" fill="url(#paint11_linear)"/>
<path id="Star 2" d="M218.317 79.6819L217.835 75.54L212.511 73.8263L217.537 72.9802L217.055 68.8383L220.643 72.4573L225.668 71.6112L222.86 74.6939L226.449 78.3129L221.125 76.5992L218.317 79.6819Z" fill="url(#paint12_linear)"/>
<ellipse id="Ellipse 2" cx="115" cy="97.5" rx="25" ry="24.5" fill="url(#paint13_linear)"/>
</g>
<defs>
<linearGradient id="paint0_linear" x1="282.423" y1="158.287" x2="281.876" y2="180.731" gradientUnits="userSpaceOnUse">
<stop stop-color="#C263FF"/>
<stop offset="1" stop-color="#C263FF" stop-opacity="0"/>
</linearGradient>
<linearGradient id="paint1_linear" x1="280.218" y1="106.183" x2="279.87" y2="128.63" gradientUnits="userSpaceOnUse">
<stop stop-color="#C263FF"/>
<stop offset="1" stop-color="#C263FF" stop-opacity="0"/>
</linearGradient>
<linearGradient id="paint2_linear" x1="283.192" y1="59.4706" x2="282.792" y2="81.9142" gradientUnits="userSpaceOnUse">
<stop stop-color="#C263FF"/>
<stop offset="1" stop-color="#C263FF" stop-opacity="0"/>
</linearGradient>
<linearGradient id="paint3_linear" x1="181.632" y1="307.91" x2="193.756" y2="492.027" gradientUnits="userSpaceOnUse">
<stop stop-color="#3A3A3E"/>
<stop offset="0.0001" stop-color="#4D4C52" stop-opacity="0.979167"/>
<stop offset="1" stop-color="#3A3A3E" stop-opacity="0"/>
</linearGradient>
<linearGradient id="paint4_linear" x1="197.467" y1="485.488" x2="199.834" y2="521.43" gradientUnits="userSpaceOnUse">
<stop stop-color="#3F3D53"/>
<stop offset="1" stop-color="#2F2E41" stop-opacity="0"/>
</linearGradient>
<linearGradient id="paint5_linear" x1="150.292" y1="485.941" x2="152.765" y2="523.485" gradientUnits="userSpaceOnUse">
<stop stop-color="#3F3D53"/>
<stop offset="1" stop-color="#2F2E41" stop-opacity="0"/>
</linearGradient>
<linearGradient id="paint6_linear" x1="195.349" y1="181.698" x2="205.297" y2="332.768" gradientUnits="userSpaceOnUse">
<stop stop-color="#180BAA"/>
<stop offset="0.0001" stop-color="#180BAA" stop-opacity="0.817708"/>
<stop offset="0.0002" stop-color="#180BAA"/>
<stop offset="0.479167" stop-color="#180BAA"/>
<stop offset="1" stop-color="#180BAA" stop-opacity="0"/>
</linearGradient>
<linearGradient id="paint7_linear" x1="144.071" y1="188.8" x2="151.777" y2="305.812" gradientUnits="userSpaceOnUse">
<stop stop-color="#180BAA"/>
<stop offset="0.0001" stop-color="#180BAA" stop-opacity="0.817708"/>
<stop offset="0.0002" stop-color="#180BAA"/>
<stop offset="0.479167" stop-color="#180BAA"/>
<stop offset="1" stop-color="#180BAA" stop-opacity="0"/>
</linearGradient>
<linearGradient id="paint8_linear" x1="251.682" y1="191.535" x2="257.413" y2="278.563" gradientUnits="userSpaceOnUse">
<stop stop-color="#180BAA"/>
<stop offset="0.0001" stop-color="#180BAA" stop-opacity="0.817708"/>
<stop offset="0.0002" stop-color="#180BAA"/>
<stop offset="0.479167" stop-color="#180BAA"/>
<stop offset="1" stop-color="#180BAA" stop-opacity="0"/>
</linearGradient>
<linearGradient id="paint9_linear" x1="266.975" y1="236.587" x2="269.595" y2="276.378" gradientUnits="userSpaceOnUse">
<stop stop-color="#180BAA"/>
<stop offset="0.0001" stop-color="#180BAA" stop-opacity="0.817708"/>
<stop offset="0.0002" stop-color="#180BAA"/>
<stop offset="0.479167" stop-color="#180BAA"/>
<stop offset="1" stop-color="#180BAA" stop-opacity="0"/>
</linearGradient>
<linearGradient id="paint10_linear" x1="82.5171" y1="180.009" x2="89.0616" y2="193.594" gradientUnits="userSpaceOnUse">
<stop stop-color="#FFFDFD"/>
<stop offset="1" stop-color="#FFFDFD" stop-opacity="0"/>
</linearGradient>
<linearGradient id="paint11_linear" x1="339.12" y1="302.538" x2="358.809" y2="308.049" gradientUnits="userSpaceOnUse">
<stop stop-color="#FFFDFD"/>
<stop offset="1" stop-color="#FFFDFD" stop-opacity="0"/>
</linearGradient>
<linearGradient id="paint12_linear" x1="218.317" y1="79.6819" x2="221.683" y2="69.2263" gradientUnits="userSpaceOnUse">
<stop stop-color="#FFFDFD"/>
<stop offset="1" stop-color="#FFFDFD" stop-opacity="0"/>
</linearGradient>
<linearGradient id="paint13_linear" x1="115" y1="73" x2="115" y2="122" gradientUnits="userSpaceOnUse">
<stop stop-color="#F9F9FC"/>
<stop offset="0.0625" stop-color="#F7F7FB" stop-opacity="0.989583"/>
<stop offset="1" stop-color="#2B41B4" stop-opacity="0"/>
</linearGradient>
</defs>
</svg>
