<svg width="370" height="370" viewBox="0 0 370 370" fill="none" xmlns="http://www.w3.org/2000/svg">
<g id="pie">
<path id="Ellipse 1" d="M40.2269 224.959C47.5383 251.223 61.8695 274.999 81.6799 293.729C101.49 312.459 126.031 325.436 152.664 331.264C179.296 337.093 207.014 335.553 232.837 326.81C258.66 318.066 281.612 302.451 299.225 281.641C316.839 260.832 328.448 235.615 332.805 208.703C337.161 181.79 334.101 154.199 323.952 128.895C313.804 103.591 296.951 81.5321 275.205 65.0883C253.459 48.6446 227.643 38.4383 200.532 35.5667L192.632 110.149C206.188 111.585 219.096 116.688 229.969 124.91C240.842 133.132 249.268 144.162 254.342 156.814C259.417 169.466 260.947 183.261 258.768 196.717C256.59 210.174 250.786 222.782 241.979 233.187C233.172 243.591 221.696 251.399 208.785 255.771C195.873 260.142 182.014 260.913 168.698 257.998C155.382 255.084 143.111 248.596 133.206 239.23C123.301 229.865 116.135 217.978 112.48 204.846L40.2269 224.959Z" fill="url(#paint0_linear)"/>
<path id="Ellipse 2" d="M201.194 35.8431C176.903 33.1991 152.333 36.5292 129.622 45.5439C106.911 54.5587 86.7466 68.9851 70.8814 87.5686C55.0162 106.152 43.931 128.33 38.5898 152.174C33.2486 176.017 33.8132 200.805 40.2343 224.381L112.598 204.672C109.388 192.884 109.105 180.49 111.776 168.568C114.447 156.646 119.989 145.557 127.922 136.265C135.854 126.974 145.937 119.761 157.292 115.253C168.648 110.746 180.932 109.081 193.078 110.403L201.194 35.8431Z" fill="rgb(30,35,35)"/>
</g>
<defs>
<linearGradient id="paint0_linear" x1="204.669" y1="323.468" x2="271.014" y2="-19.9027" gradientUnits="userSpaceOnUse">
<stop stop-color="#E73B3B"/>
<stop offset="1" stop-color="#0688FF" stop-opacity="0"/>
</linearGradient>
</defs>
</svg>
